<svg xmlns="http://www.w3.org/2000/svg" width="125" height="125" fill="none" viewBox="0 0 125 125"><g filter="url(#filter0_i_6671_15965)"><path fill="url(#paint0_linear_6671_15965)" fill-rule="evenodd" d="M41.125 93.996c-4.037-3.285-2.698-9.65-2.698-9.65s-5.456.95-8.936-2.62c-3.48-3.57-1.321-8.95-1.321-8.95-3.268.734-5.27-.65-7.164-3.262-1.47-2.03-2.155-4.545-1.979-7.014H19a10.334 10.334 0 0 1 1.58-5.343c1.773-2.827 4.229-4.59 7.612-3.706 0 0-3.588-5.422.5-10.177 4.09-4.754 9.75-2.614 9.75-2.614s-2.872-4.594 1.464-9.042c4.336-4.448 10.876-1.48 10.876-1.48s-.468-2.188 0-3.68c.51-1.634 2.266-3.134 3.588-4.142.295-.225.738-.447 1.254-.705l.003-.001c1.296-.648 3.057-1.528 4.125-3.282 1.495-2.454 2.691-5.828 2.691-5.828s1.047 3.22 2.691 5.828c1.26 1.998 3.185 2.92 4.437 3.52.382.184.702.337.921.482 1.421.938 2.892 1.909 3.613 4.127.518 1.595 0 3.681 0 3.681s5.734-2.418 9.77.866c4.037 3.285 2.698 9.65 2.698 9.65s5.456-.95 8.936 2.62c3.48 3.57 1.321 8.95 1.321 8.95 3.268-.734 5.271.65 7.164 3.262 1.47 2.03 2.156 4.545 1.979 7.014H106a10.328 10.328 0 0 1-1.581 5.343c-1.772 2.827-4.228 4.59-7.61 3.706 0 0 3.587 5.422-.502 10.177-4.089 4.754-9.75 2.614-9.75 2.614s2.873 4.594-1.463 9.042c-4.336 4.448-10.875 1.48-10.875 1.48s.467 2.188 0 3.68c-.512 1.634-2.267 3.134-3.589 4.142-.295.225-.738.447-1.254.705l-.003.001c-1.296.648-3.057 1.528-4.125 3.282-1.495 2.454-2.691 5.828-2.691 5.828s-1.047-3.221-2.691-5.828c-1.26-1.998-3.185-2.92-4.437-3.521-.382-.183-.702-.336-.921-.481-1.421-.938-2.892-1.909-3.613-4.127-.518-1.595 0-3.681 0-3.681s-5.734 2.418-9.77-.866Z" clip-rule="evenodd"/></g><defs><linearGradient id="paint0_linear_6671_15965" x1="62.5" x2="62.5" y1="14.081" y2="105.231" gradientUnits="userSpaceOnUse"><stop offset=".25" stop-color="#FFCB79"/><stop offset="1" stop-color="#D5650F"/></linearGradient><filter id="filter0_i_6671_15965" width="87" height="103.496" x="19" y="12.5" color-interpolation-filters="sRGB" filterUnits="userSpaceOnUse"><feFlood flood-opacity="0" result="BackgroundImageFix"/><feBlend in="SourceGraphic" in2="BackgroundImageFix" mode="normal" result="shape"/><feColorMatrix in="SourceAlpha" result="hardAlpha" type="matrix" values="0 0 0 0 0 0 0 0 0 0 0 0 0 0 0 0 0 0 127 0"/><feOffset dy="3.496"/><feGaussianBlur stdDeviation="5.244"/><feComposite in2="hardAlpha" k2="-1" k3="1" operator="arithmetic"/><feColorMatrix type="matrix" values="0 0 0 0 0.835294 0 0 0 0 0.396078 0 0 0 0 0.0588235 0 0 0 1 0"/><feBlend in2="shape" mode="normal" result="effect1_innerShadow_6671_15965"/></filter></defs></svg>