<svg xmlns="http://www.w3.org/2000/svg" width="125" height="125" fill="none" viewBox="0 0 125 125"><g filter="url(#filter0_i_6671_15945)"><path fill="url(#paint0_linear_6671_15945)" d="m86.587 37.96 1.54-4.186c3.93-11.66-2.153-18.256-9.883-20.174-6.21-1.54-12.564.532-15.901 4.755-3.348-4.444-9.8-6.817-16.069-5.486-7.712 1.638-12.879 11.096-9.655 21.054l1.586 4.246-4.143-1.554c-11.543-3.971-18.074 2.174-19.973 9.982-1.525 6.272.527 12.69 4.707 16.062-4.4 3.381-6.749 9.9-5.43 16.23 1.62 7.79 10.984 13.01 20.843 9.754l4.204-1.603-1.54 4.186c-3.93 11.659 2.154 18.256 9.883 20.174 6.21 1.54 12.564-.532 15.901-4.755 3.348 4.444 9.8 6.817 16.069 5.486 7.712-1.638 12.879-11.096 9.655-21.054l-1.586-4.246 4.144 1.554c11.542 3.971 18.073-2.174 19.972-9.982 1.525-6.272-.527-12.69-4.707-16.062 4.399-3.381 6.749-9.9 5.431-16.23-1.622-7.79-10.985-13.01-20.844-9.754l-4.204 1.603Z"/></g><defs><linearGradient id="paint0_linear_6671_15945" x1="62.5" x2="62.5" y1="12.72" y2="101.913" gradientUnits="userSpaceOnUse"><stop stop-color="#E8EFFC"/><stop offset="1" stop-color="#81A0E9"/></linearGradient><filter id="filter0_i_6671_15945" width="99.941" height="109.412" x="13" y="3.088" color-interpolation-filters="sRGB" filterUnits="userSpaceOnUse"><feFlood flood-opacity="0" result="BackgroundImageFix"/><feBlend in="SourceGraphic" in2="BackgroundImageFix" mode="normal" result="shape"/><feColorMatrix in="SourceAlpha" result="hardAlpha" type="matrix" values="0 0 0 0 0 0 0 0 0 0 0 0 0 0 0 0 0 0 127 0"/><feOffset dx=".941" dy="-9.412"/><feGaussianBlur stdDeviation="7.059"/><feComposite in2="hardAlpha" k2="-1" k3="1" operator="arithmetic"/><feColorMatrix type="matrix" values="0 0 0 0 0.996078 0 0 0 0 0.694118 0 0 0 0 0.168627 0 0 0 1 0"/><feBlend in2="shape" mode="normal" result="effect1_innerShadow_6671_15945"/></filter></defs></svg>