<svg xmlns="http://www.w3.org/2000/svg" width="125" height="125" fill="none" viewBox="0 0 125 125"><g filter="url(#filter0_i_6671_15949)"><path fill="url(#paint0_linear_6671_15949)" d="M62.336 12.5c10.51 0 19.719 5.564 24.845 13.907H98.76v8.505c4.507 2.093 7.633 6.66 7.634 11.956v6.49c0 3.81 2.599 7.375 6.251 8.495.466.125.466.651 0 .776-3.669 1.125-6.231 4.599-6.251 8.43v6.554c0 5.297-3.127 9.863-7.634 11.956v9.686h-12c-5.199 7.973-14.195 13.245-24.424 13.245s-19.225-5.272-24.424-13.245h-12v-9.843c-4.33-2.159-7.306-6.63-7.306-11.799V71.06c-.021-3.831-2.583-7.305-6.25-8.43-.467-.125-.467-.65 0-.776 3.651-1.12 6.25-4.685 6.25-8.495v-6.49c0-5.168 2.975-9.64 7.306-11.799v-8.662h11.58C42.618 18.065 51.827 12.5 62.336 12.5Z"/></g><defs><linearGradient id="paint0_linear_6671_15949" x1="62.5" x2="62.5" y1="112.5" y2="-2.829" gradientUnits="userSpaceOnUse"><stop stop-color="#E3F1D8"/><stop offset=".33" stop-color="#C8E4B0"/><stop offset=".66" stop-color="#83C040"/><stop offset="1" stop-color="#496D21"/></linearGradient><filter id="filter0_i_6671_15949" width="100.988" height="110.492" x="12.006" y="2.008" color-interpolation-filters="sRGB" filterUnits="userSpaceOnUse"><feFlood flood-opacity="0" result="BackgroundImageFix"/><feBlend in="SourceGraphic" in2="BackgroundImageFix" mode="normal" result="shape"/><feColorMatrix in="SourceAlpha" result="hardAlpha" type="matrix" values="0 0 0 0 0 0 0 0 0 0 0 0 0 0 0 0 0 0 127 0"/><feOffset dy="-10.492"/><feGaussianBlur stdDeviation="7.869"/><feComposite in2="hardAlpha" k2="-1" k3="1" operator="arithmetic"/><feColorMatrix type="matrix" values="0 0 0 0 0.647059 0 0 0 0 0.733333 0 0 0 0 0.988235 0 0 0 1 0"/><feBlend in2="shape" mode="normal" result="effect1_innerShadow_6671_15949"/></filter></defs></svg>