<svg xmlns="http://www.w3.org/2000/svg" width="125" height="125" fill="none" viewBox="0 0 125 125"><g fill-rule="evenodd" clip-rule="evenodd" filter="url(#filter0_i_6671_15940)"><path fill="url(#paint0_linear_6671_15940)" d="m67.291 17.658-.02-.01Z"/><path fill="url(#paint1_linear_6671_15940)" d="M17.658 57.709a1.81 1.81 0 0 1-.01.02Z"/><path fill="url(#paint2_linear_6671_15940)" d="M46.13 25.61a23.197 23.197 0 0 1 4.757-3.667c2.251-1.296 5.62-3.264 6.744-4.163.112-.09.294-.196.523-.33 1.043-.61 3.066-1.794 3.985-4.615a.45.45 0 0 1 .87 0c1.01 3.131 3.353 4.343 4.263 4.813.102.053.187.096.248.132.406.235 1.392.871 2.503 1.59 1.351.873 2.889 1.866 3.791 2.4v.005a23.173 23.173 0 0 1 5.057 3.835 23.055 23.055 0 0 1 6.646 13.873 23.055 23.055 0 0 1 13.873 6.646 23.17 23.17 0 0 1 3.667 4.758c1.296 2.251 3.264 5.62 4.163 6.744.09.112.196.294.33.523.611 1.043 1.794 3.066 4.615 3.985a.45.45 0 0 1 0 .87c-3.132 1.01-4.343 3.353-4.813 4.263a8.517 8.517 0 0 1-.132.248c-.234.406-.871 1.392-1.589 2.502-.873 1.352-1.867 2.89-2.4 3.792h-.006a23.157 23.157 0 0 1-3.835 5.057 23.055 23.055 0 0 1-13.873 6.646 23.055 23.055 0 0 1-6.646 13.873 23.17 23.17 0 0 1-4.758 3.667c-2.251 1.296-5.62 3.264-6.744 4.163-.112.09-.294.196-.523.33-1.044.611-3.066 1.794-3.985 4.615a.45.45 0 0 1-.87 0c-1.01-3.132-3.353-4.343-4.263-4.813a8.517 8.517 0 0 1-.248-.132c-.406-.235-1.393-.872-2.504-1.591-1.352-.873-2.888-1.865-3.79-2.398v-.006a23.157 23.157 0 0 1-5.057-3.835 23.055 23.055 0 0 1-6.646-13.873 23.055 23.055 0 0 1-13.873-6.646 23.197 23.197 0 0 1-3.667-4.758c-1.296-2.251-3.264-5.62-4.163-6.744-.09-.112-.196-.294-.33-.523-.61-1.044-1.794-3.066-4.615-3.985a.45.45 0 0 1 0-.87c3.131-1.01 4.343-3.353 4.813-4.263.053-.102.096-.187.132-.248.235-.406.871-1.392 1.59-2.503.873-1.351 1.866-2.889 2.4-3.791h.005a23.173 23.173 0 0 1 3.835-5.057 23.055 23.055 0 0 1 13.873-6.646 23.055 23.055 0 0 1 6.646-13.873Z"/></g><defs><linearGradient id="paint0_linear_6671_15940" x1="62.5" x2="62.5" y1="12.5" y2="69.769" gradientUnits="userSpaceOnUse"><stop stop-color="#E6651B"/><stop offset="1" stop-color="#EFABC5"/></linearGradient><linearGradient id="paint1_linear_6671_15940" x1="62.5" x2="62.5" y1="12.5" y2="69.769" gradientUnits="userSpaceOnUse"><stop stop-color="#E6651B"/><stop offset="1" stop-color="#EFABC5"/></linearGradient><linearGradient id="paint2_linear_6671_15940" x1="62.5" x2="62.5" y1="12.5" y2="69.769" gradientUnits="userSpaceOnUse"><stop stop-color="#E6651B"/><stop offset="1" stop-color="#EFABC5"/></linearGradient><filter id="filter0_i_6671_15940" width="100" height="105.714" x="12.5" y="6.786" color-interpolation-filters="sRGB" filterUnits="userSpaceOnUse"><feFlood flood-opacity="0" result="BackgroundImageFix"/><feBlend in="SourceGraphic" in2="BackgroundImageFix" mode="normal" result="shape"/><feColorMatrix in="SourceAlpha" result="hardAlpha" type="matrix" values="0 0 0 0 0 0 0 0 0 0 0 0 0 0 0 0 0 0 127 0"/><feOffset dy="-5.714"/><feGaussianBlur stdDeviation="3.571"/><feComposite in2="hardAlpha" k2="-1" k3="1" operator="arithmetic"/><feColorMatrix type="matrix" values="0 0 0 0 0.933333 0 0 0 0 0.47451 0 0 0 0 0.266667 0 0 0 1 0"/><feBlend in2="shape" mode="normal" result="effect1_innerShadow_6671_15940"/></filter></defs></svg>