<svg xmlns="http://www.w3.org/2000/svg" width="125" height="125" fill="none" viewBox="0 0 125 125"><g filter="url(#filter0_i_6671_15952)"><path fill="url(#paint0_linear_6671_15952)" fill-rule="evenodd" d="M61.468 13.592a1.42 1.42 0 0 1 2.094 0c7.26 7.9 10.288 18.339 9.05 28.335A23.937 23.937 0 0 1 86.53 37.49c.532 0 .964.431.944.962a24.935 24.935 0 0 1-4.522 13.411c10.147-1.359 20.789 1.86 28.586 9.658.532.53.533 1.395-.018 1.905-8.065 7.475-18.805 10.512-29.022 9.078a24.943 24.943 0 0 1 4.95 13.49 1.382 1.382 0 0 1-1.466 1.466 24.943 24.943 0 0 1-13.472-4.936c1.42 10.161-1.585 20.838-8.978 28.883a1.42 1.42 0 0 1-2.094 0c-7.387-8.038-10.393-18.705-8.982-28.859a24.944 24.944 0 0 1-13.987 4.939.934.934 0 0 1-.962-.944 23.937 23.937 0 0 1 4.449-13.937c-10.053 1.252-20.555-1.809-28.476-9.15-.55-.51-.55-1.374-.018-1.906 7.803-7.802 18.455-11.02 28.607-9.654a24.933 24.933 0 0 1-4.517-12.893 1.382 1.382 0 0 1 1.467-1.466c5.027.3 9.666 2.09 13.47 4.935-1.418-10.161 1.586-20.837 8.979-28.88Zm1.03 48.862a.1.1 0 0 1-.043.036.142.142 0 0 1 .002.017.1.1 0 0 1 .042.038h.003a.1.1 0 0 1 .043-.037.133.133 0 0 1-.002-.018.1.1 0 0 1-.043-.036h-.002Z" clip-rule="evenodd"/></g><defs><linearGradient id="paint0_linear_6671_15952" x1="62.5" x2="62.5" y1="12.5" y2="105.011" gradientUnits="userSpaceOnUse"><stop stop-color="#B81514"/><stop offset="1" stop-color="#FFCB79"/></linearGradient><filter id="filter0_i_6671_15952" width="102.651" height="102.52" x="13.065" y="13.131" color-interpolation-filters="sRGB" filterUnits="userSpaceOnUse"><feFlood flood-opacity="0" result="BackgroundImageFix"/><feBlend in="SourceGraphic" in2="BackgroundImageFix" mode="normal" result="shape"/><feColorMatrix in="SourceAlpha" result="hardAlpha" type="matrix" values="0 0 0 0 0 0 0 0 0 0 0 0 0 0 0 0 0 0 127 0"/><feOffset dx="3.782" dy="3.782"/><feGaussianBlur stdDeviation="4.018"/><feComposite in2="hardAlpha" k2="-1" k3="1" operator="arithmetic"/><feColorMatrix type="matrix" values="0 0 0 0 0.996078 0 0 0 0 0.694118 0 0 0 0 0.168627 0 0 0 1 0"/><feBlend in2="shape" mode="normal" result="effect1_innerShadow_6671_15952"/></filter></defs></svg>