<svg xmlns="http://www.w3.org/2000/svg" width="125" height="125" fill="none" viewBox="0 0 125 125"><g filter="url(#filter0_i_6671_15971)"><path fill="url(#paint0_linear_6671_15971)" d="M62.5 53.125c0-13.807-11.193-40.625-25-40.625H18.9a6.4 6.4 0 0 0-6.4 6.4v18.6c0 13.807 26.818 25 40.625 25H62.5v-9.375Z"/><path fill="url(#paint1_linear_6671_15971)" d="M87.5 12.5c-13.807 0-25 26.818-25 40.625V62.5h9.375c13.807 0 40.625-11.193 40.625-25v-20a5 5 0 0 0-5-5h-20Z"/><path fill="url(#paint2_linear_6671_15971)" d="M53.125 62.5c-13.807 0-40.625 11.193-40.625 25v18.6a6.4 6.4 0 0 0 6.4 6.4h18.6c13.807 0 25-26.818 25-40.625V62.5h-9.375Z"/><path fill="url(#paint3_linear_6671_15971)" d="M112.5 87.5c0-13.807-26.818-25-40.625-25H62.5v9.375c0 13.807 11.193 40.625 25 40.625h20a5 5 0 0 0 5-5v-20Z"/></g><defs><linearGradient id="paint0_linear_6671_15971" x1="12.499" x2="112.499" y1="62.5" y2="62.5" gradientUnits="userSpaceOnUse"><stop stop-color="#E8EFFC"/><stop offset="1" stop-color="#81A0E9"/></linearGradient><linearGradient id="paint1_linear_6671_15971" x1="12.499" x2="112.499" y1="62.5" y2="62.5" gradientUnits="userSpaceOnUse"><stop stop-color="#E8EFFC"/><stop offset="1" stop-color="#81A0E9"/></linearGradient><linearGradient id="paint2_linear_6671_15971" x1="12.499" x2="112.499" y1="62.5" y2="62.5" gradientUnits="userSpaceOnUse"><stop stop-color="#E8EFFC"/><stop offset="1" stop-color="#81A0E9"/></linearGradient><linearGradient id="paint3_linear_6671_15971" x1="12.499" x2="112.499" y1="62.5" y2="62.5" gradientUnits="userSpaceOnUse"><stop stop-color="#E8EFFC"/><stop offset="1" stop-color="#81A0E9"/></linearGradient><filter id="filter0_i_6671_15971" width="100" height="105.859" x="12.5" y="12.5" color-interpolation-filters="sRGB" filterUnits="userSpaceOnUse"><feFlood flood-opacity="0" result="BackgroundImageFix"/><feBlend in="SourceGraphic" in2="BackgroundImageFix" mode="normal" result="shape"/><feColorMatrix in="SourceAlpha" result="hardAlpha" type="matrix" values="0 0 0 0 0 0 0 0 0 0 0 0 0 0 0 0 0 0 127 0"/><feOffset dy="5.859"/><feGaussianBlur stdDeviation="5.859"/><feComposite in2="hardAlpha" k2="-1" k3="1" operator="arithmetic"/><feColorMatrix type="matrix" values="0 0 0 0 0.223529 0 0 0 0 0.235294 0 0 0 0 0.756863 0 0 0 0.5 0"/><feBlend in2="shape" mode="normal" result="effect1_innerShadow_6671_15971"/></filter></defs></svg>