<svg xmlns="http://www.w3.org/2000/svg" width="125" height="125" fill="none" viewBox="0 0 125 125"><g filter="url(#filter0_i_6671_15967)"><path fill="url(#paint0_linear_6671_15967)" d="M49.08 74.284a17.406 17.406 0 0 1-24.968 0l-9.288-9.478c-1.765-1.801-1.765-4.721 0-6.522l9.288-9.478a17.406 17.406 0 0 1 24.968 0l12.484 12.739L49.08 74.284Z"/><path fill="url(#paint1_linear_6671_15967)" d="M49.08 99.761c-6.895-7.035-6.895-18.442 0-25.477l12.484-12.74 12.484 12.74c6.895 7.035 6.895 18.442 0 25.477L61.564 112.5 49.08 99.761Z"/><path fill="url(#paint2_linear_6671_15967)" d="M49.08 48.806c-6.895-7.035-6.895-18.442 0-25.477l9.288-9.478a4.456 4.456 0 0 1 6.392 0l9.288 9.477c6.895 7.036 6.895 18.443 0 25.478L61.564 61.545 49.08 48.806Z"/><path fill="url(#paint3_linear_6671_15967)" d="M99.016 74.284a17.406 17.406 0 0 1-24.968 0l-12.484-12.74 12.484-12.738a17.406 17.406 0 0 1 24.968 0L111.5 61.545 99.016 74.284Z"/></g><defs><linearGradient id="paint0_linear_6671_15967" x1="62.5" x2="62.5" y1="112.5" y2="12.5" gradientUnits="userSpaceOnUse"><stop offset=".25" stop-color="#E9EAC2"/><stop offset="1" stop-color="#A5BBFC"/></linearGradient><linearGradient id="paint1_linear_6671_15967" x1="62.5" x2="62.5" y1="112.5" y2="12.5" gradientUnits="userSpaceOnUse"><stop offset=".25" stop-color="#E9EAC2"/><stop offset="1" stop-color="#A5BBFC"/></linearGradient><linearGradient id="paint2_linear_6671_15967" x1="62.5" x2="62.5" y1="112.5" y2="12.5" gradientUnits="userSpaceOnUse"><stop offset=".25" stop-color="#E9EAC2"/><stop offset="1" stop-color="#A5BBFC"/></linearGradient><linearGradient id="paint3_linear_6671_15967" x1="62.5" x2="62.5" y1="112.5" y2="12.5" gradientUnits="userSpaceOnUse"><stop offset=".25" stop-color="#E9EAC2"/><stop offset="1" stop-color="#A5BBFC"/></linearGradient><filter id="filter0_i_6671_15967" width="98" height="108.269" x="13.5" y="12.5" color-interpolation-filters="sRGB" filterUnits="userSpaceOnUse"><feFlood flood-opacity="0" result="BackgroundImageFix"/><feBlend in="SourceGraphic" in2="BackgroundImageFix" mode="normal" result="shape"/><feColorMatrix in="SourceAlpha" result="hardAlpha" type="matrix" values="0 0 0 0 0 0 0 0 0 0 0 0 0 0 0 0 0 0 127 0"/><feOffset dy="8.269"/><feGaussianBlur stdDeviation="5.907"/><feComposite in2="hardAlpha" k2="-1" k3="1" operator="arithmetic"/><feColorMatrix type="matrix" values="0 0 0 0 0.429588 0 0 0 0 0.572956 0 0 0 0 0.996544 0 0 0 1 0"/><feBlend in2="shape" mode="normal" result="effect1_innerShadow_6671_15967"/></filter></defs></svg>